<svg width="45" height="42" fill="none" xmlns="http://www.w3.org/2000/svg"><circle cx="24.818" cy="22.273" r="19.727" fill="#FFDA18"/><path d="M41.423.199a.675.675 0 00-.954 0l-6.268 6.254-2.344-2.368a.674.674 0 00-.954 0L27.96 7.027a.68.68 0 000 .958l5.746 5.802c.264.264.69.264.954 0l9.688-9.675a.68.68 0 000-.958L41.423.199zM34.188 12.35l-4.801-4.844 1.989-1.984L33.72 7.89c.263.265.69.265.954 0l6.268-6.254 1.975 1.998-8.73 8.716zM13.913 36.882l15.38-.176h1.304a3.313 3.313 0 002.213-.83 3.34 3.34 0 001.103-2.098 3.29 3.29 0 00-.45-2.016 3.288 3.288 0 001.64-1.029c.432-.5.704-1.12.781-1.777a3.282 3.282 0 00-.45-2.015 3.288 3.288 0 001.64-1.03c.432-.5.704-1.119.781-1.776a3.283 3.283 0 00-.45-1.998 3.254 3.254 0 001.768-1.198 3.275 3.275 0 00.648-2.041 3.346 3.346 0 00-1.043-2.258 3.319 3.319 0 00-2.309-.906H24.77l1.305-9.733a.69.69 0 000-.113 2.713 2.713 0 00-1.23-2.066 2.69 2.69 0 00-2.383-.268 2.708 2.708 0 00-1.656 1.742L14.956 17.8l-1.52.537a1.513 1.513 0 00-.99 1.45v15.636a1.485 1.485 0 001.48 1.486l-.013-.027zm-.13-17.126a.167.167 0 01.085-.163l1.8-.628c.17-.06.31-.187.387-.352l5.997-12.82a.7.7 0 00.045-.135 1.345 1.345 0 011.967-.765c.355.207.596.565.657.973l-1.4 10.438a.674.674 0 00.67.786h12.482c.5-.01.983.172 1.354.507.372.336.601.8.644 1.3a1.91 1.91 0 01-.534 1.386 1.89 1.89 0 01-1.36.58h-.685a.679.679 0 00-.337 1.265 1.885 1.885 0 01.945 1.849 1.969 1.969 0 01-1.975 1.708h-.603a.679.679 0 00-.337 1.265 1.892 1.892 0 01.949 1.889c-.063.479-.3.917-.664 1.232a1.952 1.952 0 01-1.312.476h-.603a.679.679 0 00-.337 1.265 1.899 1.899 0 01.95 1.848 1.975 1.975 0 01-.665 1.231c-.364.316-.83.485-1.311.477h-1.287l-15.388.177c-.059 0-.077 0-.095-.037a.132.132 0 01-.04-.094V19.756zm-11.79 17.14H9.49a1.99 1.99 0 001.404-.59c.372-.375.58-.883.58-1.412V19.647c0-.53-.21-1.04-.583-1.415a1.989 1.989 0 00-1.41-.586H1.994c-.529 0-1.035.21-1.41.586A2.006 2.006 0 000 19.647v15.247c0 .53.21 1.04.584 1.415.374.376.88.587 1.41.587zM1.35 19.648c0-.357.288-.646.643-.646H9.49a.645.645 0 01.635.646v15.247a.645.645 0 01-.643.646H1.993a.643.643 0 01-.643-.646V19.648zM5.624 34.64c.49 0 .961-.195 1.308-.544a1.86 1.86 0 000-2.626 1.846 1.846 0 00-2.615 0 1.86 1.86 0 001.307 3.17zm0-2.358a.5.5 0 01.353.856.497.497 0 01-.852-.355.5.5 0 01.5-.501z" fill="#4E585B"/></svg>