<svg width="42" height="42" fill="none" xmlns="http://www.w3.org/2000/svg"><circle cx="23.4" cy="23.4" r="18.6" fill="#FFDA18"/><path d="M29.67 32.427a.58.58 0 01-.757.316L27 31.933v.001a.77.77 0 00-.957.287 11.898 11.898 0 01-3.302 3.297.775.775 0 00-.282.957l.799 1.913a.575.575 0 01-.345.761l-2.105.886a.58.58 0 01-.756-.32l-.804-1.915a.77.77 0 00-.866-.478 11.752 11.752 0 01-4.66 0 .775.775 0 00-.867.478l-.803 1.914a.588.588 0 01-.756.32L9.19 39.16a.58.58 0 01-.32-.76l.808-1.915a.775.775 0 00-.282-.957 11.906 11.906 0 01-3.302-3.297.77.77 0 00-.956-.286l-1.914.808a.579.579 0 01-.756-.316l-.862-2.12a.58.58 0 01.321-.755l1.914-.804a.77.77 0 00.479-.866 11.956 11.956 0 010-4.66.775.775 0 00-.48-.867l-1.913-.803a.579.579 0 01-.32-.742l.875-2.11a.582.582 0 01.76-.316l1.939.804a.77.77 0 00.957-.282 11.837 11.837 0 013.301-3.297.775.775 0 00.283-.957l-.81-1.914a.584.584 0 01.32-.766l2.107-.87a.578.578 0 01.756.315l.77 1.91a.777.777 0 101.436-.594l-.804-1.913a2.138 2.138 0 00-2.785-1.159l-2.11.871a2.144 2.144 0 00-1.144 1.139 2.201 2.201 0 000 1.636l.57 1.364a13.3 13.3 0 00-2.819 2.837l-1.363-.569a2.201 2.201 0 00-1.636 0c-.524.218-.94.634-1.158 1.158l-.89 2.11a2.15 2.15 0 000 1.637c.214.524.63.941 1.153 1.157l1.364.565a13.11 13.11 0 000 4.01l-1.364.564a2.138 2.138 0 00-1.153 2.785l.87 2.081a2.133 2.133 0 002.785 1.158l1.364-.564a13.5 13.5 0 002.837 2.832l-.564 1.364a2.154 2.154 0 000 1.636c.214.525.63.942 1.153 1.158l2.11.876a2.14 2.14 0 002.784-1.158l.565-1.364c1.329.206 2.681.206 4.01 0l.565 1.364a2.144 2.144 0 001.97 1.32c.28 0 .556-.054.814-.162l2.11-.875a2.139 2.139 0 001.158-2.786l-.57-1.363a13.3 13.3 0 002.838-2.838l1.364.57a2.128 2.128 0 002.785-1.158l.894-2.11a2.154 2.154 0 000-1.636 2.095 2.095 0 00-1.153-1.154l-1.938-.808a.776.776 0 10-.593 1.435l1.914.809c.145.055.26.17.316.316a.555.555 0 010 .445l-.88 2.105z" fill="#4E585B"/><path d="M16.028 20.26a.775.775 0 000-1.551 6.852 6.852 0 00.044 13.699h.047a6.848 6.848 0 006.794-6.9.774.774 0 10-1.55.01 5.301 5.301 0 01-5.272 5.349h-.044a5.302 5.302 0 01-3.77-9.024c.994-1 2.341-1.57 3.751-1.584zm24.207-5.279A1.77 1.77 0 0042 13.216V11.56a1.77 1.77 0 00-1.765-1.746h-.9a9.926 9.926 0 00-1.01-2.44l.642-.642a1.776 1.776 0 000-2.498l-1.173-1.19a1.745 1.745 0 00-1.244-.513 1.717 1.717 0 00-1.243.512l-.642.641a9.87 9.87 0 00-2.44-1.01v-.908A1.77 1.77 0 0030.459 0h-1.665a1.77 1.77 0 00-1.765 1.766v.909a9.915 9.915 0 00-2.44 1.01l-.642-.642a1.766 1.766 0 00-2.488 0l-1.172 1.172a1.775 1.775 0 000 2.498l.641.641a9.88 9.88 0 00-1.01 2.46h-.909a1.77 1.77 0 00-1.765 1.765v1.665a1.765 1.765 0 001.765 1.761h.91c.227.856.566 1.678 1.009 2.445l-.641.641a1.77 1.77 0 000 2.493l1.191 1.158a1.77 1.77 0 001.225.512c.467.003.915-.181 1.244-.512l.641-.646a9.89 9.89 0 002.44 1.015v.904a1.766 1.766 0 001.766 1.765h1.665a1.771 1.771 0 001.766-1.765V22.1a9.94 9.94 0 002.44-1.014l.641.645c.329.334.776.522 1.244.522.467.005.916-.18 1.244-.512l1.173-1.177a1.77 1.77 0 000-2.493l-.641-.65a9.876 9.876 0 001.01-2.44h.899zm-2.278-.928a8.487 8.487 0 01-1.268 3.062.78.78 0 00.091.957l1.081 1.077a.21.21 0 010 .301l-1.172 1.172a.21.21 0 01-.148.063.183.183 0 01-.144-.063l-1.081-1.076a.765.765 0 00-.957-.096 8.504 8.504 0 01-3.058 1.268.775.775 0 00-.626.76v1.527a.21.21 0 01-.206.206h-1.68a.206.206 0 01-.205-.206v-1.507a.785.785 0 00-.627-.76 8.334 8.334 0 01-3.057-1.269.771.771 0 00-.98.1l-1.078 1.082a.21.21 0 01-.148.063.188.188 0 01-.144-.063l-1.172-1.172a.206.206 0 010-.302l1.057-1.08a.766.766 0 00.096-.958 8.424 8.424 0 01-1.268-3.057.784.784 0 00-.742-.646h-1.526a.206.206 0 01-.206-.206v-1.67c0-.114.092-.206.206-.206h1.526a.785.785 0 00.761-.627A8.336 8.336 0 0122.55 7.67a.776.776 0 00-.096-.957l-1.076-1.081a.196.196 0 01-.062-.144.196.196 0 01.062-.148l1.163-1.182a.217.217 0 01.148-.057c.053 0 .105.02.143.057l1.082 1.081a.77.77 0 00.957.096 8.417 8.417 0 013.076-1.263.79.79 0 00.627-.766v-1.54c0-.114.092-.206.206-.206h1.66a.21.21 0 01.206.206v1.526a.785.785 0 00.627.78A8.42 8.42 0 0134.33 5.34a.78.78 0 00.957-.09l1.081-1.082a.19.19 0 01.144-.058.192.192 0 01.148.058l1.173 1.172a.205.205 0 010 .301L36.79 6.704a.766.766 0 00-.096.957 8.504 8.504 0 011.268 3.057.78.78 0 00.741.646h1.532a.21.21 0 01.205.206v1.66a.206.206 0 01-.205.206h-1.532a.746.746 0 00-.746.617z" fill="#4E585B"/><path d="M29.612 7.421a4.976 4.976 0 10.01 9.952 4.976 4.976 0 00-.01-9.952zm0 8.402a3.425 3.425 0 113.43-3.425 3.427 3.427 0 01-3.43 3.411v.014z" fill="#4E585B"/></svg>