<svg width="38" height="45" fill="none" xmlns="http://www.w3.org/2000/svg"><circle cx="20.692" cy="27.692" r="16.692" fill="#FFDA18"/><path d="M17.5 6.563c-9.625 0-17.5 7.875-17.5 17.5 0 9.624 7.875 17.5 17.5 17.5S35 33.687 35 24.063c0-9.625-7.875-17.5-17.5-17.5zm0 33.541A15.996 15.996 0 011.458 24.063 15.996 15.996 0 0117.5 8.02a15.996 15.996 0 0116.042 16.041A15.996 15.996 0 0117.5 40.105zM15.313 4.375h4.374c1.167 0 2.188-1.02 2.188-2.188 0-1.166-1.02-2.187-2.188-2.187h-4.375c-1.166 0-2.187 1.02-2.187 2.188 0 1.166 1.02 2.187 2.188 2.187zm0-2.917h4.374c.438 0 .73.292.73.73 0 .437-.292.729-.73.729h-4.375c-.437 0-.729-.292-.729-.73 0-.437.292-.729.73-.729z" fill="#4E585B"/><path d="M13.854 24.5c-.146.875.146 1.896.875 2.48.583.583 1.166.874 1.895.874h.438c.875-.146 1.604-.583 2.042-1.458l6.416-10.5-10.208 6.27c-.729.584-1.313 1.313-1.458 2.334zm2.333-1.02l5.104-3.063-3.208 5.25c-.292.437-.584.583-1.021.729-.438 0-.875 0-1.167-.292-.292-.292-.437-.875-.437-1.313-.146-.583.291-1.02.729-1.312zM29.26 9.093l1.031-1.031 3.094 3.094-1.032 1.031-3.093-3.094z" fill="#4E585B"/></svg>