<svg width="51" height="42" fill="none" xmlns="http://www.w3.org/2000/svg"><circle cx="25.308" cy="22.077" r="16.692" fill="#FFDA18"/><path d="M47.803 27.244a2.758 2.758 0 00-1.75.649 2.807 2.807 0 00-.948 1.62h-1.801c-.448 0-.876-.18-1.193-.499a1.711 1.711 0 01-.494-1.203 2.857 2.857 0 00-.825-2.006 2.802 2.802 0 00-1.988-.832H36.41c.464-1.272.703-2.617.708-3.973a11.868 11.868 0 00-.725-3.973h2.412a2.8 2.8 0 001.988-.832 2.854 2.854 0 00.825-2.005c0-.452.178-.884.494-1.204a1.69 1.69 0 011.193-.5h1.8c.122.635.457 1.208.948 1.622a2.76 2.76 0 001.75.649c1.005 0 1.934-.54 2.436-1.419a2.862 2.862 0 000-2.838 2.808 2.808 0 00-2.436-1.419 2.757 2.757 0 00-1.75.65 2.805 2.805 0 00-.947 1.62h-1.801c-.746.001-1.46.3-1.988.832a2.854 2.854 0 00-.824 2.007 1.717 1.717 0 01-.495 1.203 1.69 1.69 0 01-1.193.5h-2.871a11.866 11.866 0 00-4.337-4.957 11.715 11.715 0 00-6.289-1.855c-.793 0-1.584.08-2.362.239a.568.568 0 00.225 1.112 10.646 10.646 0 019.69 2.947A10.844 10.844 0 0135.991 21a10.557 10.557 0 01-1.581 5.605c-.123.203-.22.422-.325.639H16.529c-.105-.217-.203-.436-.325-.64A10.55 10.55 0 0114.622 21c0-2.099.608-4.151 1.746-5.907a10.717 10.717 0 014.666-3.979.57.57 0 00.29-.748.56.56 0 00-.742-.292 11.866 11.866 0 00-5.94 5.818H11.81c-.447 0-.876-.18-1.192-.5a1.713 1.713 0 01-.495-1.203 2.85 2.85 0 00-.825-2.006 2.802 2.802 0 00-1.987-.832h-1.8a2.805 2.805 0 00-.948-1.62 2.761 2.761 0 00-1.751-.65 2.805 2.805 0 00-2.435 1.42 2.862 2.862 0 000 2.837 2.808 2.808 0 002.435 1.419 2.76 2.76 0 001.75-.649c.493-.414.828-.987.95-1.621H7.31c.447 0 .876.18 1.192.5.316.318.495.75.495 1.202 0 .753.297 1.474.824 2.006a2.802 2.802 0 001.988.832H14.2A11.96 11.96 0 0013.497 21c.005 1.356.245 2.7.708 3.973H11.81a2.8 2.8 0 00-1.988.832 2.854 2.854 0 00-.824 2.006c0 .451-.179.884-.495 1.203a1.68 1.68 0 01-1.192.5h-1.8a2.807 2.807 0 00-.948-1.622 2.76 2.76 0 00-1.751-.648c-1.005 0-1.933.54-2.435 1.418a2.862 2.862 0 000 2.838 2.808 2.808 0 002.435 1.42 2.76 2.76 0 001.75-.65c.493-.414.828-.986.95-1.621H7.31c.745 0 1.46-.3 1.987-.832a2.854 2.854 0 00.825-2.006c0-.451.178-.884.495-1.203a1.68 1.68 0 011.192-.5h2.863c.172.374.363.74.573 1.093.044.075.076.158.119.235a2.81 2.81 0 00-1.746 1.838c-.26.858-.099 1.79.432 2.51a2.786 2.786 0 002.258 1.135h.06a2.799 2.799 0 00-.623 1.703c.001.752.298 1.474.825 2.006a2.801 2.801 0 001.987.832h.054a7.283 7.283 0 004.259 4.124.564.564 0 00.742-.44.568.568 0 00-.369-.631 6.14 6.14 0 01-3.394-3.053h10.947a6.165 6.165 0 01-2.266 2.489 6.087 6.087 0 01-3.223.916.565.565 0 00-.563.568c0 .313.252.567.563.567a7.19 7.19 0 004.041-1.237 7.295 7.295 0 002.67-3.303h.037a2.8 2.8 0 001.988-.832 2.854 2.854 0 00.824-2.006 2.793 2.793 0 00-.622-1.703h.06c.31 0 .562-.254.562-.567a.565.565 0 00-.563-.568H16.31c-.603 0-1.16-.325-1.461-.851a1.717 1.717 0 010-1.703 1.684 1.684 0 011.46-.852h17.997c.448.001.876.181 1.192.5.317.32.495.752.495 1.203 0 .314.252.568.563.568.31 0 .562-.254.562-.568a2.836 2.836 0 00-.518-1.62 2.794 2.794 0 00-1.349-1.025c.042-.076.073-.159.119-.233.21-.355.4-.72.573-1.095h2.862c.448.001.876.18 1.193.5.316.32.494.752.495 1.203 0 .753.297 1.474.824 2.006a2.801 2.801 0 001.987.832h1.801c.122.634.457 1.207.948 1.62.492.415 1.11.644 1.75.65 1.005 0 1.933-.54 2.436-1.419a2.862 2.862 0 000-2.838 2.808 2.808 0 00-2.436-1.418zm0-17.027c.447 0 .876.179 1.193.498a1.71 1.71 0 010 2.408 1.679 1.679 0 01-2.387 0 1.712 1.712 0 01.001-2.407 1.68 1.68 0 011.193-.5zm-44.99 3.405c-.448 0-.877-.18-1.194-.499a1.712 1.712 0 010-2.408 1.679 1.679 0 012.387 0 1.71 1.71 0 01-.001 2.408 1.684 1.684 0 01-1.193.499zm0 18.162c-.448 0-.877-.18-1.194-.498a1.71 1.71 0 010-2.409 1.68 1.68 0 012.387 0 1.712 1.712 0 01-.001 2.408 1.688 1.688 0 01-1.193.5zm29.243 1.136c.603 0 1.16.324 1.461.85a1.717 1.717 0 010 1.703 1.684 1.684 0 01-1.46.852H18.558c-.603 0-1.16-.325-1.461-.852a1.717 1.717 0 010-1.702 1.684 1.684 0 011.46-.852h13.498zm15.747-1.136a1.68 1.68 0 01-1.194-.498 1.71 1.71 0 010-2.409 1.68 1.68 0 012.386 0 1.712 1.712 0 010 2.408 1.68 1.68 0 01-1.192.5zM25.307 5.676a.56.56 0 00.398-.167.57.57 0 00.165-.4V.566A.565.565 0 0025.307 0a.565.565 0 00-.562.567v4.541c0 .15.06.295.165.401a.56.56 0 00.397.167zm-8.361 1.846a.565.565 0 00.77.207.572.572 0 00.206-.775l-2.25-3.933a.56.56 0 00-.769-.209.571.571 0 00-.206.777l2.25 3.933zm16.235.283a.564.564 0 00.488-.283l2.25-3.933a.571.571 0 00-.207-.777.56.56 0 00-.769.21l-2.25 3.932a.572.572 0 00.207.775.55.55 0 00.281.076z" fill="#4E585B"/></svg>