<svg width="40" height="40" fill="none" xmlns="http://www.w3.org/2000/svg"><path fill="#D8D8D8" d="M0 0h40v40H0z"/><path d="M24.511 31c-.32 0-.636-.053-.926-.159a2.156 2.156 0 01-.746-.449l-10.351-9.856c-.316-.294-.488-.663-.488-1.043 0-.38.172-.75.488-1.043l10.716-9.857c.364-.335.886-.546 1.453-.586.567-.04 1.131.094 1.569.373.437.279.713.68.765 1.114.052.434-.123.867-.487 1.202l-9.58 8.805 9.259 8.805c.262.241.428.535.48.846a1.31 1.31 0 01-.191.91 1.888 1.888 0 01-.802.69 2.66 2.66 0 01-1.159.248z" fill="#000"/></svg>