<svg width="40" height="40" fill="none" xmlns="http://www.w3.org/2000/svg"><path fill="#3492AC" d="M0 0h40v40H0z"/><path d="M16.489 31c.32 0 .636-.053.926-.159.289-.105.544-.258.746-.449l10.351-9.856c.316-.294.488-.663.488-1.043 0-.38-.172-.75-.488-1.043L17.796 8.593c-.364-.335-.886-.546-1.453-.586-.567-.04-1.131.094-1.569.373-.437.279-.713.68-.765 1.114-.052.434.123.867.487 1.202l9.58 8.805-9.259 8.805a1.485 1.485 0 00-.48.846 1.31 1.31 0 00.191.91c.176.284.454.523.802.69.347.165.75.252 1.159.248z" fill="#fff"/></svg>