<svg width="14" height="16" fill="none" xmlns="http://www.w3.org/2000/svg"><path d="M5.615 2.727a2.731 2.731 0 100 5.462 2.731 2.731 0 000-5.462zm0 4.508a1.778 1.778 0 111.778-1.777A1.778 1.778 0 015.615 7.23v.004z" fill="#fff"/><path d="M11.224 5.953a3.57 3.57 0 01-.953-.157v.272c0 1.935-1.153 3.655-1.997 4.913l-.171.253a38.756 38.756 0 01-2.493 3.289c-.563-.682-1.673-2.06-2.493-3.289l-.162-.272C2.111 9.704.953 7.984.953 6.048A4.657 4.657 0 017.788 1.95a3.55 3.55 0 01.248-.954A5.6 5.6 0 000 6.068c0 2.225 1.249 4.089 2.164 5.447l.167.248a47.46 47.46 0 002.926 3.813L5.62 16l.363-.424a47.561 47.561 0 002.926-3.813l.167-.252c.91-1.359 2.159-3.218 2.159-5.443-.005-.039-.01-.077-.01-.115z" fill="#fff"/><path d="M11.334 4.766a2.383 2.383 0 100-4.766 2.383 2.383 0 000 4.766z" fill="#fff"/></svg>