<svg width="69" height="69" fill="none" xmlns="http://www.w3.org/2000/svg"><circle cx="34.5" cy="34.5" r="33" transform="matrix(-1 0 0 1 69 0)" stroke="#fff" stroke-width="3"/><path d="M29.655 47c.341 0 .679-.058.987-.172a2.29 2.29 0 00.796-.489L42.48 35.626c.336-.32.52-.72.52-1.134 0-.413-.184-.814-.52-1.134L31.05 22.645c-.389-.365-.946-.594-1.55-.637-.605-.044-1.207.102-1.674.405-.467.303-.76.738-.816 1.21-.056.473.13.943.519 1.307l10.219 9.571-9.876 9.57c-.28.263-.457.582-.512.92a1.44 1.44 0 00.204.99c.187.308.484.568.854.749.371.18.8.274 1.237.27z" fill="#fff"/></svg>