<svg width="69" height="69" fill="none" xmlns="http://www.w3.org/2000/svg"><circle cx="34.5" cy="34.5" r="33" stroke="#fff" stroke-width="3"/><path d="M39.345 47c-.341 0-.679-.058-.987-.172a2.29 2.29 0 01-.796-.489L26.52 35.626c-.336-.32-.52-.72-.52-1.134 0-.413.184-.814.52-1.134l11.43-10.713c.389-.365.946-.594 1.55-.637.605-.044 1.207.102 1.674.405.467.303.76.738.816 1.21.056.473-.13.943-.519 1.307l-10.219 9.571 9.876 9.57c.28.263.458.582.512.92.055.339-.016.682-.203.99a2.026 2.026 0 01-.855.749c-.371.18-.8.274-1.237.27z" fill="#fff"/></svg>