<svg width="31" height="31" fill="none" xmlns="http://www.w3.org/2000/svg"><path d="M30.717 29.345l-8.54-8.623a12.613 12.613 0 002.93-8.108C25.107 5.648 19.51 0 12.568 0 5.628 0 0 5.648 0 12.614c0 6.966 5.627 12.614 12.568 12.614 3.169 0 6.055-1.18 8.259-3.121l8.524 8.61a.963.963 0 001.366 0 .972.972 0 000-1.372zm-18.165-6.088c-5.84 0-10.62-4.798-10.62-10.66 0-5.86 4.78-10.659 10.62-10.659 5.84 0 10.621 4.798 10.621 10.66 0 5.86-4.78 10.66-10.62 10.66zM17.38 11.63h-3.862V7.752a.968.968 0 00-.966-.969.968.968 0 00-.965.97v3.876H7.724a.968.968 0 00-.965.969c0 .534.432.969.965.969h3.863v3.876c0 .535.432.969.965.969a.968.968 0 00.966-.97v-3.875h3.862a.968.968 0 00.965-.97.967.967 0 00-.965-.968z" fill="#000"/></svg>